HIERARCHY
ROOT CG
{
	OFFSET 0.000000 0.000000 27.772259
	CHANNELS 6 Xposition Yposition Zposition Xrotation Yrotation Zrotation
	JOINT Pelvis
	{
		OFFSET 0.000000 0.000000 0.000000
		CHANNELS 3 Xrotation Yrotation Zrotation
		JOINT Spine
		{
			OFFSET -0.000017 -10.490843 -0.495483
			CHANNELS 3 Xrotation Yrotation Zrotation
			JOINT Spine1
			{
				OFFSET -0.000010 -22.678980 0.018061
				CHANNELS 3 Xrotation Yrotation Zrotation
				JOINT Spine2
				{
					OFFSET -0.000010 -22.678967 0.018061
					CHANNELS 3 Xrotation Yrotation Zrotation
					JOINT Spine3
					{
						OFFSET -0.000010 -22.678982 0.018059
						CHANNELS 3 Xrotation Yrotation Zrotation
						JOINT Neck
						{
							OFFSET -0.000012 -22.678986 -1.289251
							CHANNELS 3 Xrotation Yrotation Zrotation
							JOINT Neck1
							{
								OFFSET -0.000007 -16.255905 0.012947
								CHANNELS 3 Xrotation Yrotation Zrotation
								JOINT Head
								{
									OFFSET -0.000005 -10.784607 -0.287502
									CHANNELS 3 Xrotation Yrotation Zrotation
									JOINT Jaw01
									{
										OFFSET 0.000031 7.782959 5.073944
										CHANNELS 3 Xrotation Yrotation Zrotation
										JOINT Jaw02
										{
											OFFSET 0.000004 -34.927139 -18.883980
											CHANNELS 3 Xrotation Yrotation Zrotation
											End Site
											{
												OFFSET -0.000170 8.372803 -38.812450
											}
										}
									}
									JOINT Nose
									{
										OFFSET -0.000002 -25.700912 7.222265
										CHANNELS 3 Xrotation Yrotation Zrotation
										End Site
										{
											OFFSET -0.000090 0.641281 -21.715439
										}
									}
									JOINT L_EyeSocket
									{
										OFFSET 7.352326 -19.832718 14.164183
										CHANNELS 3 Xrotation Yrotation Zrotation
										JOINT L_Eye
										{
											OFFSET -0.000868 -0.001053 0.016003
											CHANNELS 3 Xrotation Yrotation Zrotation
											End Site
											{
												OFFSET -0.001505 -0.001846 0.027969
											}
										}
										JOINT L_Eyelid_Top
										{
											OFFSET -0.001004 -0.002625 0.032516
											CHANNELS 3 Xrotation Yrotation Zrotation
											End Site
											{
												OFFSET -0.013218 0.005753 0.024086
											}
										}
										JOINT L_Eyelid_Bottom
										{
											OFFSET -0.001194 -0.002777 0.035381
											CHANNELS 3 Xrotation Yrotation Zrotation
											End Site
											{
												OFFSET -0.010032 0.008636 -0.024754
											}
										}
									}
									JOINT R_EyeSocket
									{
										OFFSET -7.352252 -19.832748 14.164206
										CHANNELS 3 Xrotation Yrotation Zrotation
										JOINT R_Eye
										{
											OFFSET 0.000875 -0.001068 0.015991
											CHANNELS 3 Xrotation Yrotation Zrotation
											End Site
											{
												OFFSET 0.001505 -0.001846 0.027962
											}
										}
										JOINT R_Eyelid_Top
										{
											OFFSET 0.001021 -0.002625 0.032516
											CHANNELS 3 Xrotation Yrotation Zrotation
											End Site
											{
												OFFSET 0.013214 0.005753 0.024078
											}
										}
										JOINT R_Eyelid_Bottom
										{
											OFFSET 0.001170 -0.002762 0.035366
											CHANNELS 3 Xrotation Yrotation Zrotation
											End Site
											{
												OFFSET 0.010029 0.008636 -0.024746
											}
										}
									}
								}
								JOINT Neck_Fat
								{
									OFFSET 0.000044 -9.595100 -17.491512
									CHANNELS 3 Xrotation Yrotation Zrotation
									End Site
									{
										OFFSET -0.000036 15.369423 -0.000007
									}
								}
							}
						}
						JOINT L_Clavicle
						{
							OFFSET 4.567107 -11.666092 -3.750029
							CHANNELS 3 Xrotation Yrotation Zrotation
							JOINT L_UpperArm
							{
								OFFSET 20.725666 -0.000053 -0.000032
								CHANNELS 3 Xrotation Yrotation Zrotation
								JOINT L_Forearm
								{
									OFFSET 5.265112 -0.585754 -20.155697
									CHANNELS 3 Xrotation Yrotation Zrotation
									JOINT L_Hand
									{
										OFFSET 2.653017 -10.877708 -16.383667
										CHANNELS 3 Xrotation Yrotation Zrotation
										JOINT L_Finger0
										{
											OFFSET -4.206146 -4.328911 -5.034346
											CHANNELS 3 Xrotation Yrotation Zrotation
											JOINT L_Finger01
											{
												OFFSET 0.084272 -1.788536 -4.181065
												CHANNELS 3 Xrotation Yrotation Zrotation
												End Site
												{
													OFFSET 3.261885 3.094673 -0.685818
												}
											}
										}
										JOINT L_Finger1
										{
											OFFSET -1.039112 -6.775742 -3.499998
											CHANNELS 3 Xrotation Yrotation Zrotation
											JOINT L_Finger11
											{
												OFFSET 1.320335 -3.040672 -6.425793
												CHANNELS 3 Xrotation Yrotation Zrotation
												End Site
												{
													OFFSET -1.244579 6.832077 -2.013330
												}
											}
										}
										JOINT L_Finger2
										{
											OFFSET 2.531296 -5.656487 -3.286415
											CHANNELS 3 Xrotation Yrotation Zrotation
											JOINT L_Finger21
											{
												OFFSET 1.991665 -2.402016 -5.957748
												CHANNELS 3 Xrotation Yrotation Zrotation
												End Site
												{
													OFFSET -2.793068 5.800873 -1.944178
												}
											}
										}
										JOINT L_Finger3
										{
											OFFSET 5.474075 -3.302338 -2.655975
											CHANNELS 3 Xrotation Yrotation Zrotation
											JOINT L_Finger31
											{
												OFFSET 2.026943 -1.267532 -5.961166
												CHANNELS 3 Xrotation Yrotation Zrotation
												End Site
												{
													OFFSET -4.375172 4.343658 -1.800320
												}
											}
										}
										JOINT L_Finger4
										{
											OFFSET 4.825745 1.085899 -2.321970
											CHANNELS 3 Xrotation Yrotation Zrotation
											JOINT L_Finger41
											{
												OFFSET 3.358261 -1.829651 -3.744434
												CHANNELS 3 Xrotation Yrotation Zrotation
												End Site
												{
													OFFSET -3.843296 2.955200 -2.267633
												}
											}
										}
									}
								}
							}
						}
						JOINT R_Clavicle
						{
							OFFSET -4.567111 -11.666092 -3.750036
							CHANNELS 3 Xrotation Yrotation Zrotation
							JOINT R_UpperArm
							{
								OFFSET -20.725670 -0.000031 0.000038
								CHANNELS 3 Xrotation Yrotation Zrotation
								JOINT R_Forearm
								{
									OFFSET -5.265285 -0.585762 -20.155655
									CHANNELS 3 Xrotation Yrotation Zrotation
									JOINT R_Hand
									{
										OFFSET -2.653147 -10.877739 -16.383663
										CHANNELS 3 Xrotation Yrotation Zrotation
										JOINT R_Finger0
										{
											OFFSET 4.206116 -4.328888 -5.034388
											CHANNELS 3 Xrotation Yrotation Zrotation
											JOINT R_Finger01
											{
												OFFSET -0.084324 -1.788544 -4.181051
												CHANNELS 3 Xrotation Yrotation Zrotation
												End Site
												{
													OFFSET -3.261890 3.094666 -0.685791
												}
											}
										}
										JOINT R_Finger1
										{
											OFFSET 1.039101 -6.775711 -3.499994
											CHANNELS 3 Xrotation Yrotation Zrotation
											JOINT R_Finger11
											{
												OFFSET -1.320374 -3.040672 -6.425779
												CHANNELS 3 Xrotation Yrotation Zrotation
												End Site
												{
													OFFSET 1.244556 6.832077 -2.013342
												}
											}
										}
										JOINT R_Finger2
										{
											OFFSET -2.531307 -5.656464 -3.286409
											CHANNELS 3 Xrotation Yrotation Zrotation
											JOINT R_Finger21
											{
												OFFSET -1.991707 -2.402016 -5.957708
												CHANNELS 3 Xrotation Yrotation Zrotation
												End Site
												{
													OFFSET 2.793037 5.800858 -1.944197
												}
											}
										}
										JOINT R_Finger3
										{
											OFFSET -5.474091 -3.302330 -2.655947
											CHANNELS 3 Xrotation Yrotation Zrotation
											JOINT R_Finger31
											{
												OFFSET -2.026993 -1.267532 -5.961157
												CHANNELS 3 Xrotation Yrotation Zrotation
												End Site
												{
													OFFSET 4.375156 4.343674 -1.800358
												}
											}
										}
										JOINT R_Finger4
										{
											OFFSET -4.825756 1.085922 -2.321926
											CHANNELS 3 Xrotation Yrotation Zrotation
											JOINT R_Finger41
											{
												OFFSET -3.358307 -1.829651 -3.744390
												CHANNELS 3 Xrotation Yrotation Zrotation
												End Site
												{
													OFFSET 3.843273 2.955208 -2.267666
												}
											}
										}
									}
								}
							}
						}
					}
				}
			}
		}
		JOINT Tail01
		{
			OFFSET -0.000010 10.922326 -0.017508
			CHANNELS 3 Xrotation Yrotation Zrotation
			JOINT Tail02
			{
				OFFSET -0.000022 21.986111 0.000013
				CHANNELS 3 Xrotation Yrotation Zrotation
				JOINT Tail03
				{
					OFFSET -0.000022 21.986118 0.000002
					CHANNELS 3 Xrotation Yrotation Zrotation
					JOINT Tail04
					{
						OFFSET -0.000022 21.986122 0.000004
						CHANNELS 3 Xrotation Yrotation Zrotation
						JOINT Tail05
						{
							OFFSET -0.000022 21.986099 0.000010
							CHANNELS 3 Xrotation Yrotation Zrotation
							JOINT Tail06
							{
								OFFSET -0.000022 21.986099 0.000006
								CHANNELS 3 Xrotation Yrotation Zrotation
								JOINT Tail07
								{
									OFFSET -0.000022 21.986099 0.000000
									CHANNELS 3 Xrotation Yrotation Zrotation
									JOINT Tail08
									{
										OFFSET -0.000022 21.984848 0.000050
										CHANNELS 3 Xrotation Yrotation Zrotation
										JOINT Tail09
										{
											OFFSET -0.000025 21.926025 -1.606211
											CHANNELS 3 Xrotation Yrotation Zrotation
											JOINT Tail10
											{
												OFFSET -0.000027 21.750092 -3.203882
												CHANNELS 3 Xrotation Yrotation Zrotation
												End Site
												{
													OFFSET -0.000036 4.767395 21.461668
												}
											}
										}
									}
								}
							}
						}
					}
				}
			}
		}
		JOINT L_Thigh
		{
			OFFSET 24.788780 0.000021 -0.000034
			CHANNELS 3 Xrotation Yrotation Zrotation
			JOINT L_Calf
			{
				OFFSET 4.720837 4.161326 -21.049969
				CHANNELS 3 Xrotation Yrotation Zrotation
				JOINT L_Foot
				{
					OFFSET 2.154160 21.114433 -11.949743
					CHANNELS 3 Xrotation Yrotation Zrotation
					JOINT L_Toe0
					{
						OFFSET 4.557564 9.251841 -8.735286
						CHANNELS 3 Xrotation Yrotation Zrotation
						End Site
						{
							OFFSET 4.555542 -12.646044 1.018752
						}
					}
					JOINT L_Toe1
					{
						OFFSET 2.346291 5.845602 -11.687160
						CHANNELS 3 Xrotation Yrotation Zrotation
						End Site
						{
							OFFSET 5.347954 -12.298279 1.365644
						}
					}
					JOINT L_Toe2
					{
						OFFSET -0.356020 3.902458 -12.541145
						CHANNELS 3 Xrotation Yrotation Zrotation
						End Site
						{
							OFFSET 3.916235 -12.806129 1.542549
						}
					}
					JOINT L_Toe3
					{
						OFFSET -4.603447 3.183935 -12.435249
						CHANNELS 3 Xrotation Yrotation Zrotation
						End Site
						{
							OFFSET 3.810858 -12.587427 2.957583
						}
					}
					JOINT L_Toe4
					{
						OFFSET -7.144358 6.231495 -10.072764
						CHANNELS 3 Xrotation Yrotation Zrotation
						End Site
						{
							OFFSET 3.810858 -12.587425 2.957585
						}
					}
				}
			}
		}
		JOINT R_Thigh
		{
			OFFSET -24.788780 -0.000024 0.000034
			CHANNELS 3 Xrotation Yrotation Zrotation
			JOINT R_Calf
			{
				OFFSET -4.720922 4.161324 -21.049952
				CHANNELS 3 Xrotation Yrotation Zrotation
				JOINT R_Foot
				{
					OFFSET -2.154238 21.114414 -11.949730
					CHANNELS 3 Xrotation Yrotation Zrotation
					JOINT R_Toe0
					{
						OFFSET -4.557598 9.251823 -8.735270
						CHANNELS 3 Xrotation Yrotation Zrotation
						End Site
						{
							OFFSET -4.555508 -12.646051 1.018756
						}
					}
					JOINT R_Toe1
					{
						OFFSET -2.346325 5.845589 -11.687157
						CHANNELS 3 Xrotation Yrotation Zrotation
						End Site
						{
							OFFSET -5.347919 -12.298286 1.365654
						}
					}
					JOINT R_Toe2
					{
						OFFSET 0.355980 3.902462 -12.541145
						CHANNELS 3 Xrotation Yrotation Zrotation
						End Site
						{
							OFFSET -3.916199 -12.806131 1.542559
						}
					}
					JOINT R_Toe3
					{
						OFFSET 4.603411 3.183941 -12.435266
						CHANNELS 3 Xrotation Yrotation Zrotation
						End Site
						{
							OFFSET -3.810825 -12.587429 2.957591
						}
					}
					JOINT R_Toe4
					{
						OFFSET 7.144323 6.231503 -10.072779
						CHANNELS 3 Xrotation Yrotation Zrotation
						End Site
						{
							OFFSET -3.810825 -12.587433 2.957584
						}
					}
				}
			}
		}
	}
}
MOTION
Frames: 4
Frame Time: 0.033333
-0.000000 0.000000 20.956554 0.000000 -0.000000 0.000044 -8.806990 -0.000090 0.000041 -0.593160 0.000014 -0.000020 -1.015928 0.000001 -0.000005 -1.015930 0.000001 -0.000005 3.871592 -0.000001 0.000006 -4.143096 0.000001 -0.000006 4.031858 -0.000001 0.000006 6.386123 -0.000003 0.000009 -15.132692 -0.000019 0.000023 0.000012 0.000000 -0.000000 0.000000 0.000000 -0.000000 0.000000 -0.000001 -0.000033 0.000124 -0.000077 0.000010 0.000006 0.000004 -0.000008 0.000008 0.000009 0.000002 0.000000 0.000000 -0.000003 0.000122 0.000077 -0.000017 0.000001 -0.000001 0.000002 0.000004 -0.000007 -0.000001 -0.000001 0.000000 0.000000 0.000000 -0.000000 0.000000 32.576123 -18.052653 7.063992 -4.865310 0.816344 -1.261471 -13.778480 -6.005209 -8.062225 8.887846 3.567519 -37.974178 2.293943 -2.160262 1.022046 -3.150415 20.093961 -17.320349 3.208075 0.692812 0.316696 3.933910 4.075152 -11.205345 2.902133 1.528052 0.320272 0.207610 -2.202462 -4.182378 2.258075 2.391615 0.214569 0.630645 22.321381 35.921467 1.858302 2.703236 0.310870 0.000000 0.000000 -0.000000 28.941421 18.584344 -5.247045 -4.323826 -0.720091 1.124369 -14.249973 5.817642 7.894509 8.263637 -8.268324 39.383287 -1.144029 -1.106064 0.483212 -8.399592 -20.493619 16.004716 -1.621707 0.342885 0.174583 -0.812362 -2.691612 11.465530 -1.469098 0.765059 0.191096 -3.476499 5.517823 4.824643 -1.144086 1.204188 0.144179 0.720147 -17.385429 -35.357007 -0.944374 1.361076 0.190332 -3.777024 -0.002305 -4.067524 -0.313406 -0.023140 4.577453 -0.223711 -0.005900 0.234107 -0.217306 0.004752 0.464265 -0.202602 -0.005792 0.810384 -0.198047 -0.013605 1.305887 -0.201589 -0.024119 1.978953 3.981937 0.181508 2.816977 3.980190 0.513304 3.706388 4.054300 0.955911 4.392095 -11.669865 -1.446683 -4.440371 -17.717688 0.135693 -4.082711 39.522739 -5.221569 -0.468469 3.915741 1.584376 1.411395 3.909557 1.866414 1.042752 4.237747 1.362027 0.369261 4.292113 1.213282 -0.353392 4.206231 0.948588 -1.216584 -12.662174 1.606304 4.807885 -13.684160 0.006253 3.159753 45.087776 4.008624 1.176807 -0.000019 -0.000006 -0.000004 5.581751 -0.671231 1.091577 5.581752 -0.671231 1.091576 5.581754 -0.671227 1.091575 5.581740 -0.671226 1.091574 
0.000000 0.000000 20.932758 0.000000 -0.000000 0.000044 -8.806990 -0.000090 0.000041 -0.612886 0.000014 -0.000020 -1.024531 0.000001 -0.000005 -1.024530 0.000001 -0.000005 3.922345 -0.000001 0.000006 -4.143095 0.000001 -0.000006 4.031858 -0.000001 0.000006 6.360777 -0.000003 0.000009 -15.070186 -0.000019 0.000023 0.062536 0.000000 -0.000000 0.000000 0.000000 -0.000000 0.000001 -0.000001 -0.000033 0.000124 -0.000077 0.000010 0.000008 0.000004 -0.000006 0.000008 0.000009 0.000003 0.000000 0.000000 -0.000003 0.000121 0.000077 -0.000012 0.000001 -0.000001 0.000005 0.000003 -0.000006 0.000003 -0.000001 -0.000000 0.000000 0.000000 -0.000000 0.000000 32.553829 -18.072274 7.066160 -4.945580 0.830726 -1.281728 -13.452332 -5.988141 -8.175234 8.882426 3.604879 -37.985588 2.266216 -2.134623 1.009287 -3.192115 20.097591 -17.310051 3.169649 0.684404 0.313124 3.896107 4.064076 -11.206935 2.867400 1.509649 0.316891 0.178484 -2.229022 -4.186685 2.231046 2.362907 0.212554 0.631566 22.282080 35.916861 1.836100 2.670784 0.307662 0.000000 0.000000 0.000000 28.842827 18.571086 -5.197210 -4.196978 -0.697734 1.092121 -14.477730 5.825755 7.815336 8.246034 -8.417500 39.427475 -1.251551 -1.210958 0.527689 -8.566213 -20.504586 15.962473 -1.774837 0.374990 0.191555 -0.962662 -2.647698 11.475280 -1.607905 0.837021 0.210147 -3.593442 5.624943 4.848004 -1.252256 1.317695 0.159032 0.722976 -17.225066 -35.339600 -1.033761 1.489365 0.209462 -3.777154 -0.004460 -4.037616 -0.212756 -0.013511 4.475923 -0.238822 -0.005927 0.210986 -0.280385 0.001894 0.422633 -0.257951 -0.003450 0.739393 -0.208014 -0.008905 1.206102 -0.184083 -0.023873 1.852590 4.005733 0.171937 2.686146 3.984604 0.498683 3.612134 4.043044 0.956676 4.412064 -11.716524 -1.449264 -4.454932 -17.601790 0.130706 -4.056331 39.535088 -5.217653 -0.487063 3.910997 1.580720 1.405297 3.905115 1.859589 1.039054 4.231944 1.358014 0.367355 4.286056 1.209955 -0.353437 4.200348 0.946192 -1.214147 -12.975491 1.605525 4.899146 -13.200666 0.018901 3.048541 44.990849 4.001672 1.199648 -0.000017 -0.000004 -0.000003 5.564856 -0.671975 1.085497 5.565383 -0.672137 1.085495 5.565896 -0.671491 1.088953 5.561868 -0.670258 1.088929 
-0.000000 0.000000 20.908257 0.000000 -0.000000 0.000044 -8.806990 -0.000090 0.000041 -0.633021 0.000014 -0.000020 -1.033582 0.000001 -0.000005 -1.033579 0.000001 -0.000005 3.976048 -0.000001 0.000006 -4.143096 0.000001 -0.000006 4.031859 -0.000001 0.000006 6.333199 -0.000003 0.000010 -15.005473 -0.000019 0.000023 0.127252 0.000000 -0.000000 0.000000 0.000000 -0.000000 0.000000 -0.000001 -0.000033 0.000124 -0.000077 0.000012 0.000006 0.000002 -0.000004 0.000008 0.000009 0.000005 0.000000 0.000000 -0.000003 0.000121 0.000077 -0.000015 0.000001 -0.000001 0.000002 0.000003 -0.000006 -0.000000 -0.000000 -0.000000 0.000000 -0.000000 -0.000000 -0.000000 32.532659 -18.092396 7.070001 -5.030926 0.846056 -1.303244 -13.112427 -5.971421 -8.292796 8.877326 3.640111 -37.996411 2.240065 -2.110436 0.997253 -3.231443 20.101035 -17.300335 3.133410 0.676480 0.309763 3.860439 4.053647 -11.208374 2.834638 1.492297 0.313694 0.151035 -2.254073 -4.190843 2.205555 2.335832 0.210647 0.632444 22.245009 35.912489 1.815158 2.640181 0.304621 -0.000001 0.000000 0.000000 28.734295 18.557860 -5.142649 -4.062312 -0.674078 1.057835 -14.718737 5.835525 7.732558 8.226988 -8.579717 39.475502 -1.368376 -1.325108 0.575826 -8.747441 -20.516258 15.916354 -1.941347 0.409848 0.210114 -1.126088 -2.600025 11.486105 -1.758867 0.915207 0.231055 -3.721205 5.740167 4.873291 -1.369914 1.441087 0.175431 0.725024 -17.055215 -35.320448 -1.131020 1.628844 0.230485 -3.777346 -0.007910 -3.983231 -0.134704 -0.004342 4.355609 -0.235805 -0.005865 0.180681 -0.323740 0.000011 0.387271 -0.313831 -0.002012 0.681883 -0.236871 -0.005718 1.113002 -0.182296 -0.021761 1.727120 4.032176 0.161867 2.546208 4.001488 0.481834 3.504583 4.044242 0.951268 4.401858 -11.764807 -1.451759 -4.469893 -17.483307 0.125664 -4.029355 39.545863 -5.213927 -0.505779 3.894405 1.569053 1.392014 3.889875 1.843865 1.027161 4.213572 1.347612 0.361106 4.267044 1.201171 -0.353554 4.182059 0.939933 -1.206690 -13.295556 1.604477 4.992682 -12.700645 0.030989 2.933423 44.895383 3.994207 1.224281 -0.000017 -0.000003 -0.000006 5.516848 -0.668401 1.073853 5.517751 -0.668682 1.073840 5.518637 -0.667564 1.079855 5.520373 -0.668120 1.079838 
0.000000 0.000000 20.883095 0.000000 -0.000000 0.000044 -8.806990 -0.000090 0.000041 -0.653445 0.000014 -0.000020 -1.043032 0.000001 -0.000005 -1.043027 0.000001 -0.000005 4.032358 -0.000001 0.000006 -4.143095 0.000001 -0.000006 4.031858 -0.000001 0.000006 6.303623 -0.000003 0.000010 -14.938860 -0.000019 0.000023 0.193878 0.000000 -0.000001 0.000000 0.000000 -0.000000 0.000001 -0.000001 -0.000033 0.000124 -0.000076 0.000010 0.000006 0.000004 -0.000008 0.000007 0.000009 0.000002 0.000001 0.000000 -0.000003 0.000122 0.000077 -0.000017 0.000000 -0.000001 0.000002 0.000003 -0.000006 -0.000003 -0.000000 0.000000 0.000000 -0.000000 -0.000000 0.000000 32.512479 -18.112950 7.075351 -5.120901 0.862250 -1.325905 -12.753693 -5.955531 -8.414140 8.872495 3.673433 -38.006670 2.215315 -2.087532 0.985880 -3.268670 20.104300 -17.291141 3.099105 0.668980 0.306571 3.826657 4.043787 -11.209683 2.803624 1.475865 0.310656 0.125076 -2.277803 -4.194852 2.181422 2.310197 0.208820 0.633251 22.209912 35.908364 1.795329 2.611201 0.301736 -0.000001 0.000000 0.000000 28.616683 18.544684 -5.083770 -3.920567 -0.649269 1.021688 -14.971913 5.846270 7.645500 8.206682 -8.753780 39.526906 -1.493616 -1.447691 0.627217 -8.941958 -20.528569 15.866668 -2.120019 0.447192 0.230141 -1.301444 -2.548998 11.497966 -1.920878 0.999034 0.253722 -3.858528 5.862955 4.901566 -1.496199 1.573443 0.193303 0.726764 -16.874821 -35.299582 -1.235436 1.778449 0.253316 -3.777607 -0.012410 -3.898643 -0.083121 0.003870 4.212646 -0.196897 -0.005534 0.134693 -0.326276 -0.000959 0.353550 -0.366100 -0.001266 0.638123 -0.304107 -0.003826 1.033903 -0.210910 -0.018665 1.610223 4.052245 0.151407 2.398949 4.043007 0.460281 3.366048 4.068691 0.937145 4.350410 -11.814524 -1.454186 -4.485282 -17.362556 0.120581 -4.001851 39.555241 -5.210366 -0.524591 3.867400 1.549564 1.367396 3.863804 1.819509 1.006922 4.182704 1.330976 0.350348 4.235173 1.187045 -0.353750 4.151463 0.929957 -1.194103 -13.620530 1.602877 5.087797 -12.187521 0.042352 2.815187 44.800929 3.986345 1.250278 -0.000019 -0.000005 -0.000008 5.439853 -0.660331 1.057478 5.440909 -0.660670 1.057454 5.441953 -0.659342 1.064627 5.446589 -0.660814 1.064615 
